<?xml version="1.0" standalone="no"?>
<svg viewBox="0 0 200 200" xmlns="http://www.w3.org/2000/svg">
  <path fill="#eeeeee0f" d="M44.7,-76.9C57.8,-69.9,68,-57.6,74,-43.9C79.9,-30.2,81.4,-15.1,79.5,-1.1C77.6,12.9,72.3,25.8,66.1,39C60,52.3,53,66,41.8,70.7C30.7,75.4,15.3,71.1,1.4,68.6C-12.5,66.2,-25,65.6,-35.2,60.4C-45.4,55.1,-53.2,45.2,-60.3,34.3C-67.5,23.5,-73.9,11.7,-75.9,-1.2C-77.9,-14.1,-75.5,-28.1,-68,-38.4C-60.6,-48.7,-48.1,-55.3,-36,-62.7C-23.8,-70.2,-11.9,-78.7,2,-82.1C15.8,-85.5,31.6,-83.8,44.7,-76.9Z" transform="translate(100 100)" />
</svg>
