<?xml version="1.0" standalone="no"?><svg xmlns="http://www.w3.org/2000/svg" viewBox="0 0 1440 320"><path fill="#252d7d" fill-opacity="1" d="M0,96L40,128C80,160,160,224,240,229.3C320,235,400,181,480,160C560,139,640,149,720,165.3C800,181,880,203,960,208C1040,213,1120,203,1200,176C1280,149,1360,107,1400,85.3L1440,64L1440,320L1400,320C1360,320,1280,320,1200,320C1120,320,1040,320,960,320C880,320,800,320,720,320C640,320,560,320,480,320C400,320,320,320,240,320C160,320,80,320,40,320L0,320Z"></path></svg>